<?xml version="1.0" standalone="no"?>
<!DOCTYPE svg PUBLIC "-//W3C//DTD SVG 20010904//EN"
 "http://www.w3.org/TR/2001/REC-SVG-20010904/DTD/svg10.dtd">
<svg version="1.0" xmlns="http://www.w3.org/2000/svg"
 width="500.000000pt" height="500.000000pt" viewBox="0 0 500.000000 500.000000"
 preserveAspectRatio="xMidYMid meet">

<g transform="translate(0.000000,500.000000) scale(0.100000,-0.100000)"
fill="#000000" stroke="none">
<path d="M2108 3303 c-36 -22 -38 -37 -26 -156 18 -185 28 -191 315 -200 223
-7 275 -1 294 35 15 29 5 112 -25 193 -48 133 -76 145 -336 145 -164 -1 -199
-3 -222 -17z m435 -36 c40 -26 56 -56 73 -138 14 -69 14 -74 -4 -98 -19 -26
-20 -26 -186 -29 -231 -4 -250 9 -262 171 -9 119 -8 119 196 115 128 -2 161
-6 183 -21z"/>
<path d="M2743 3255 c-6 -16 45 -170 80 -240 43 -89 72 -106 240 -140 243 -49
256 -39 180 139 -63 147 -98 174 -293 226 -129 34 -197 39 -207 15z m271 -55
c105 -27 140 -55 181 -144 57 -126 53 -159 -21 -158 -65 1 -223 40 -256 63
-58 42 -119 217 -87 255 15 19 59 15 183 -16z"/>
<path d="M2858 2872 c-166 -96 -425 -361 -569 -581 -20 -31 -29 -26 -160 84
-56 47 -106 85 -113 85 -6 0 -31 -20 -55 -44 l-44 -45 89 -93 c49 -51 138
-146 198 -211 85 -91 112 -115 122 -106 7 6 29 40 49 77 99 179 302 479 316
465 16 -18 51 -317 47 -413 -3 -109 -15 -134 -79 -178 -33 -23 -35 -23 -319
-20 -274 3 -287 4 -328 26 -46 24 -97 87 -106 130 -16 74 -56 432 -56 499 0
93 21 133 80 157 59 23 544 24 613 0 51 -17 50 -17 117 40 33 27 33 29 15 42
-10 8 -43 23 -72 34 -50 19 -78 20 -391 20 -194 0 -356 -5 -382 -11 -59 -13
-104 -45 -129 -90 -37 -66 -24 -295 39 -695 24 -148 31 -169 78 -217 46 -48
91 -71 162 -86 80 -15 706 -17 745 -2 107 43 155 119 155 245 0 102 -22 293
-58 504 l-28 163 78 89 79 89 -15 35 c-8 20 -19 36 -23 36 -4 0 -29 -13 -55
-28z"/>
<path d="M2922 2758 c-17 -17 -15 -89 9 -283 31 -253 42 -265 253 -265 69 0
136 4 149 9 34 13 51 61 43 124 -12 105 -64 288 -91 323 -39 52 -62 63 -176
84 -119 23 -170 25 -187 8z m220 -54 c119 -22 136 -41 172 -195 34 -146 34
-172 -1 -198 -24 -20 -35 -21 -132 -15 -58 3 -117 11 -129 17 -37 18 -50 56
-67 188 -19 155 -19 184 1 203 20 20 47 20 156 0z"/>
</g>
</svg>
