<?xml version="1.0" encoding="UTF-8"?>
<!DOCTYPE svg PUBLIC "-//W3C//DTD SVG 1.1//EN" "http://www.w3.org/Graphics/SVG/1.1/DTD/svg11.dtd">
<svg xmlns="http://www.w3.org/2000/svg" version="1.1" width="845px" height="500px" style="shape-rendering:geometricPrecision; text-rendering:geometricPrecision; image-rendering:optimizeQuality; fill-rule:evenodd; clip-rule:evenodd" xmlns:xlink="http://www.w3.org/1999/xlink">
<g><path style="opacity:1" fill="#fefefe" d="M -0.5,-0.5 C 281.167,-0.5 562.833,-0.5 844.5,-0.5C 844.5,166.167 844.5,332.833 844.5,499.5C 562.833,499.5 281.167,499.5 -0.5,499.5C -0.5,332.833 -0.5,166.167 -0.5,-0.5 Z"/></g>
<g><path style="opacity:1" fill="#020202" d="M 356.5,136.5 C 359.595,136.626 361.428,138.293 362,141.5C 362.868,144.485 363.201,147.485 363,150.5C 354.997,158.17 347.33,166.17 340,174.5C 330.383,187.785 320.383,200.785 310,213.5C 292.653,238.859 276.32,264.859 261,291.5C 239.357,269.523 218.024,247.189 197,224.5C 196.333,223.5 196.333,222.5 197,221.5C 201.378,216.786 206.044,212.453 211,208.5C 223.79,217.489 235.956,227.322 247.5,238C 249.695,239.373 252.029,239.706 254.5,239C 281.36,197.641 315.36,163.474 356.5,136.5 Z"/></g>
<g><path style="opacity:1" fill="#979797" d="M 424.5,166.5 C 416.5,166.5 408.5,166.5 400.5,166.5C 400.5,207.5 400.5,248.5 400.5,289.5C 399.501,248.337 399.168,207.003 399.5,165.5C 408.017,165.174 416.35,165.507 424.5,166.5 Z"/></g>
<g><path style="opacity:1" fill="#000000" d="M 424.5,166.5 C 424.5,207.5 424.5,248.5 424.5,289.5C 416.5,289.5 408.5,289.5 400.5,289.5C 400.5,248.5 400.5,207.5 400.5,166.5C 408.5,166.5 416.5,166.5 424.5,166.5 Z"/></g>
<g><path style="opacity:1" fill="#080808" d="M 451.5,165.5 C 459.946,164.975 465.779,168.641 469,176.5C 469.646,189.521 463.479,195.354 450.5,194C 441.617,189.686 438.784,182.853 442,173.5C 444.362,169.755 447.528,167.089 451.5,165.5 Z"/></g>
<g><path style="opacity:1" fill="#060606" d="M 571.5,191.5 C 579.833,191.5 588.167,191.5 596.5,191.5C 596.832,203.518 596.499,215.518 595.5,227.5C 587.591,231.038 579.758,234.705 572,238.5C 571.5,222.837 571.333,207.17 571.5,191.5 Z"/></g>
<g><path style="opacity:1" fill="#050505" d="M 636.5,208.5 C 625.106,213.635 613.773,218.968 602.5,224.5C 601.893,224.376 601.56,224.043 601.5,223.5C 608.14,213.184 614.807,202.851 621.5,192.5C 630.816,191.335 640.149,191.168 649.5,192C 646.209,196.748 643.042,201.581 640,206.5C 638.887,207.305 637.721,207.972 636.5,208.5 Z"/></g>
<g><path style="opacity:1" fill="#040404" d="M 345.5,202.5 C 359.397,200.607 372.397,203.107 384.5,210C 385.357,210.689 386.023,211.522 386.5,212.5C 382.188,217.98 377.688,223.313 373,228.5C 370.531,226.348 367.698,224.848 364.5,224C 343.771,222.062 334.271,231.562 336,252.5C 340.07,266.288 349.237,272.121 363.5,270C 368.312,269.011 372.479,266.844 376,263.5C 380.738,268.648 385.238,273.981 389.5,279.5C 382.963,285.435 375.297,289.268 366.5,291C 347.545,294.145 331.712,288.645 319,274.5C 311.617,262.886 308.951,250.219 311,236.5C 315.782,218.217 327.282,206.883 345.5,202.5 Z"/></g>
<g><path style="opacity:1" fill="#040404" d="M 520.5,201.5 C 533.321,200.872 545.321,203.705 556.5,210C 557.357,210.689 558.023,211.522 558.5,212.5C 554.188,217.98 549.688,223.313 545,228.5C 538.213,223.866 530.713,222.366 522.5,224C 508.681,230.758 504.181,241.591 509,256.5C 516.164,270.016 526.997,273.849 541.5,268C 543.641,266.692 545.641,265.192 547.5,263.5C 552.323,268.492 556.99,273.658 561.5,279C 557.618,283.214 552.952,286.214 547.5,288C 523.199,296.448 503.366,290.615 488,270.5C 480.389,253.952 480.722,237.619 489,221.5C 496.89,210.643 507.39,203.976 520.5,201.5 Z"/></g>
<g><path style="opacity:1" fill="#040404" d="M 442.5,203.5 C 450.833,203.5 459.167,203.5 467.5,203.5C 467.5,232.167 467.5,260.833 467.5,289.5C 459.167,289.5 450.833,289.5 442.5,289.5C 442.5,260.833 442.5,232.167 442.5,203.5 Z"/></g>
<g><path style="opacity:1" fill="#121212" d="M 601.5,226.5 C 613.286,221.441 624.953,216.107 636.5,210.5C 639.148,209.327 641.815,208.494 644.5,208C 637.251,218.496 630.251,229.162 623.5,240C 630.757,250.955 637.423,261.788 643.5,272.5C 619.564,262.198 595.897,251.364 572.5,240C 582.193,235.486 591.86,230.986 601.5,226.5 Z"/></g>
<g><path style="opacity:1" fill="#f8f8f8" d="M 634.5,214.5 C 635.239,214.369 635.906,214.536 636.5,215C 630.833,223.333 625.167,231.667 619.5,240C 625.62,248.103 630.787,256.603 635,265.5C 616.425,257.129 597.925,248.629 579.5,240C 597.924,231.451 616.257,222.951 634.5,214.5 Z"/></g>
<g><path style="opacity:1" fill="#d9d9d9" d="M 636.5,208.5 C 636.5,209.167 636.5,209.833 636.5,210.5C 624.953,216.107 613.286,221.441 601.5,226.5C 600.375,225.348 600.375,224.348 601.5,223.5C 601.56,224.043 601.893,224.376 602.5,224.5C 613.773,218.968 625.106,213.635 636.5,208.5 Z"/></g>
<g><path style="opacity:1" fill="#060606" d="M 571.5,242.5 C 579.613,246.261 587.779,249.928 596,253.5C 596.5,265.495 596.667,277.495 596.5,289.5C 588.167,289.5 579.833,289.5 571.5,289.5C 571.5,273.833 571.5,258.167 571.5,242.5 Z"/></g>
<g><path style="opacity:1" fill="#060606" d="M 601.5,255.5 C 614.26,261.045 626.927,266.879 639.5,273C 643.29,278.079 646.956,283.245 650.5,288.5C 641.518,289.665 632.518,289.832 623.5,289C 615.525,278.204 608.192,267.037 601.5,255.5 Z"/></g>
<g><path style="opacity:1" fill="#1a1a1a" d="M 586.5,302.5 C 589.452,302.991 592.119,303.325 594.5,303.5C 594.113,304.72 593.28,305.387 592,305.5C 590.144,304.264 588.311,304.264 586.5,305.5C 585.438,304.575 585.438,303.575 586.5,302.5 Z"/></g>
<g><path style="opacity:1" fill="#1b1b1b" d="M 209.5,307.5 C 212.85,307.335 216.183,307.502 219.5,308C 223.292,310.053 224.458,313.219 223,317.5C 219.959,319.929 216.459,320.929 212.5,320.5C 212.5,323.5 212.5,326.5 212.5,329.5C 211.5,329.5 210.5,329.5 209.5,329.5C 209.5,322.167 209.5,314.833 209.5,307.5 Z"/></g>
<g><path style="opacity:1" fill="#0b0b0b" d="M 230.5,326.5 C 233.159,326.917 235.492,327.917 237.5,329.5C 234.167,329.5 230.833,329.5 227.5,329.5C 227.5,322.167 227.5,314.833 227.5,307.5C 228.5,307.5 229.5,307.5 230.5,307.5C 230.5,313.833 230.5,320.167 230.5,326.5 Z"/></g>
<g><path style="opacity:1" fill="#141414" d="M 247.5,307.5 C 249.144,307.286 250.644,307.62 252,308.5C 254.37,315.402 256.87,322.236 259.5,329C 258.5,329.667 257.5,329.667 256.5,329C 255.818,325.104 253.485,323.604 249.5,324.5C 245.491,323.99 243.491,325.657 243.5,329.5C 242.5,329.5 241.5,329.5 240.5,329.5C 242.833,322.167 245.167,314.833 247.5,307.5 Z"/></g>
<g><path style="opacity:1" fill="#0f0f0f" d="M 261.5,307.5 C 266.544,307.173 271.544,307.506 276.5,308.5C 274.604,309.466 272.604,309.799 270.5,309.5C 270.5,316.167 270.5,322.833 270.5,329.5C 269.5,329.5 268.5,329.5 267.5,329.5C 267.5,322.833 267.5,316.167 267.5,309.5C 264.918,309.975 262.918,309.308 261.5,307.5 Z"/></g>
<g><path style="opacity:1" fill="#141414" d="M 286.5,307.5 C 287.833,307.5 289.167,307.5 290.5,307.5C 292.833,314.833 295.167,322.167 297.5,329.5C 296.5,329.5 295.5,329.5 294.5,329.5C 294.509,325.657 292.509,323.99 288.5,324.5C 286.833,324.667 285.167,324.833 283.5,325C 282.687,326.803 281.52,328.303 280,329.5C 279.5,329.167 279,328.833 278.5,328.5C 281.175,321.471 283.842,314.471 286.5,307.5 Z"/></g>
<g><path style="opacity:1" fill="#090909" d="M 304.5,316.5 C 307.159,316.917 309.492,317.917 311.5,319.5C 309.167,319.5 306.833,319.5 304.5,319.5C 304.5,322.833 304.5,326.167 304.5,329.5C 303.5,329.5 302.5,329.5 301.5,329.5C 301.5,322.167 301.5,314.833 301.5,307.5C 305.555,307.176 309.555,307.509 313.5,308.5C 310.572,309.484 307.572,309.817 304.5,309.5C 304.5,311.833 304.5,314.167 304.5,316.5 Z"/></g>
<g><path style="opacity:1" fill="#141414" d="M 322.5,307.5 C 335.811,306.167 340.645,311.834 337,324.5C 330.667,331.167 324.333,331.167 318,324.5C 315.056,317.524 316.556,311.858 322.5,307.5 Z"/></g>
<g><path style="opacity:1" fill="#131313" d="M 342.5,307.5 C 346.182,307.335 349.848,307.501 353.5,308C 356.991,309.821 358.157,312.654 357,316.5C 356.209,318.604 354.709,319.937 352.5,320.5C 354.293,323.251 355.959,326.084 357.5,329C 356.5,329.667 355.5,329.667 354.5,329C 352.583,326.502 350.916,323.835 349.5,321C 348.207,320.51 346.873,320.343 345.5,320.5C 345.5,323.5 345.5,326.5 345.5,329.5C 344.5,329.5 343.5,329.5 342.5,329.5C 342.5,322.167 342.5,314.833 342.5,307.5 Z"/></g>
<g><path style="opacity:1" fill="#191919" d="M 366.5,316.5 C 366.013,315.527 365.513,314.527 365,313.5C 364.501,318.823 364.334,324.156 364.5,329.5C 363.5,329.5 362.5,329.5 361.5,329.5C 361.5,322.167 361.5,314.833 361.5,307.5C 362.978,307.238 364.311,307.571 365.5,308.5C 367.727,313.954 370.227,319.287 373,324.5C 376.194,319.446 378.861,314.112 381,308.5C 382.011,307.663 383.178,307.33 384.5,307.5C 384.5,314.833 384.5,322.167 384.5,329.5C 383.5,329.5 382.5,329.5 381.5,329.5C 381.666,324.489 381.499,319.489 381,314.5C 378.781,319.667 376.281,324.667 373.5,329.5C 370.393,325.621 368.059,321.288 366.5,316.5 Z"/></g>
<g><path style="opacity:1" fill="#141414" d="M 395.5,307.5 C 397.144,307.286 398.644,307.62 400,308.5C 402.37,315.402 404.87,322.236 407.5,329C 406.5,329.667 405.5,329.667 404.5,329C 403.818,325.104 401.485,323.604 397.5,324.5C 393.491,323.99 391.491,325.657 391.5,329.5C 390.5,329.5 389.5,329.5 388.5,329.5C 390.833,322.167 393.167,314.833 395.5,307.5 Z"/></g>
<g><path style="opacity:1" fill="#151515" d="M 419.5,307.5 C 424.267,307.191 428.934,307.691 433.5,309C 439.779,314.633 440.112,320.633 434.5,327C 429.777,329.235 424.777,330.069 419.5,329.5C 419.5,322.167 419.5,314.833 419.5,307.5 Z"/></g>
<g><path style="opacity:1" fill="#171717" d="M 445.5,309.5 C 444.527,311.948 444.194,314.615 444.5,317.5C 447.167,317.5 449.833,317.5 452.5,317.5C 450.721,319.344 448.388,320.01 445.5,319.5C 444.527,321.948 444.194,324.615 444.5,327.5C 447.5,327.5 450.5,327.5 453.5,327.5C 449.971,329.423 445.971,330.089 441.5,329.5C 441.5,322.167 441.5,314.833 441.5,307.5C 445.555,307.176 449.555,307.509 453.5,308.5C 450.914,309.48 448.247,309.813 445.5,309.5 Z"/></g>
<g><path style="opacity:1" fill="#171717" d="M 471.5,307.5 C 474.85,307.335 478.183,307.502 481.5,308C 483.64,308.973 485.307,310.473 486.5,312.5C 486,312.833 485.5,313.167 485,313.5C 479.179,307.847 473.846,308.18 469,314.5C 467.354,321.549 470.021,325.882 477,327.5C 479.678,326.577 482.178,325.243 484.5,323.5C 486.472,324.02 486.472,325.187 484.5,327C 471.864,332.361 465.698,328.195 466,314.5C 467.666,312.004 469.5,309.671 471.5,307.5 Z"/></g>
<g><path style="opacity:1" fill="#141414" d="M 496.5,307.5 C 509.811,306.167 514.645,311.834 511,324.5C 504.667,331.167 498.333,331.167 492,324.5C 489.056,317.524 490.556,311.858 496.5,307.5 Z"/></g>
<g><path style="opacity:1" fill="#191919" d="M 515.5,307.5 C 520.214,307.173 524.88,307.507 529.5,308.5C 527.955,309.452 526.288,309.785 524.5,309.5C 524.5,316.167 524.5,322.833 524.5,329.5C 523.5,329.5 522.5,329.5 521.5,329.5C 521.5,322.833 521.5,316.167 521.5,309.5C 518.918,309.975 516.918,309.308 515.5,307.5 Z"/></g>
<g><path style="opacity:1" fill="#141414" d="M 540.5,307.5 C 542.911,307.137 544.411,308.137 545,310.5C 546.888,316.608 549.055,322.608 551.5,328.5C 548.52,329.353 547.187,328.019 547.5,324.5C 543.833,324.5 540.167,324.5 536.5,324.5C 536.813,328.019 535.48,329.353 532.5,328.5C 535.175,321.471 537.842,314.471 540.5,307.5 Z"/></g>
<g><path style="opacity:1" fill="#1a1a1a" d="M 560.5,307.5 C 566.745,306.229 571.745,308.062 575.5,313C 572.404,313.927 570.07,312.927 568.5,310C 559.338,309.173 555.838,313.339 558,322.5C 559.266,325.635 561.599,327.302 565,327.5C 568.088,326.956 570.755,325.622 573,323.5C 573.5,323.833 574,324.167 574.5,324.5C 572.505,327.389 569.838,329.389 566.5,330.5C 568.307,331.395 569.64,332.728 570.5,334.5C 570.392,335.442 570.059,336.275 569.5,337C 567.098,337.814 564.765,337.647 562.5,336.5C 564.167,335.833 565.833,335.167 567.5,334.5C 566.675,333.614 565.675,333.281 564.5,333.5C 564.5,332.167 564.5,330.833 564.5,329.5C 559.829,329.245 556.662,326.911 555,322.5C 553.087,315.97 554.92,310.97 560.5,307.5 Z"/></g>
<g><path style="opacity:1" fill="#181818" d="M 585.5,307.5 C 599.65,307.12 603.817,313.453 598,326.5C 585.246,332.624 578.913,328.624 579,314.5C 580.694,311.642 582.861,309.309 585.5,307.5 Z"/></g>
<g><path style="opacity:1" fill="#0d0d0d" d="M 604.5,307.5 C 608.555,307.176 612.555,307.509 616.5,308.5C 613.572,309.484 610.572,309.817 607.5,309.5C 607.5,312.167 607.5,314.833 607.5,317.5C 618.167,318.167 618.167,318.833 607.5,319.5C 607.5,322.167 607.5,324.833 607.5,327.5C 610.572,327.183 613.572,327.516 616.5,328.5C 612.555,329.491 608.555,329.824 604.5,329.5C 604.5,322.167 604.5,314.833 604.5,307.5 Z"/></g>
<g><path style="opacity:1" fill="#181818" d="M 623.5,307.5 C 626.518,307.335 629.518,307.502 632.5,308C 633.687,309.019 634.687,310.186 635.5,311.5C 635,311.833 634.5,312.167 634,312.5C 632.217,311.047 630.217,310.047 628,309.5C 623.388,310.342 622.554,312.509 625.5,316C 629.014,316.831 632.181,318.331 635,320.5C 635.659,328.115 632.159,330.949 624.5,329C 622.365,328.241 621.032,326.741 620.5,324.5C 623.049,323.169 624.716,324.002 625.5,327C 630.98,328.188 632.98,326.188 631.5,321C 627.398,320.271 623.898,318.438 621,315.5C 620.018,312.225 620.851,309.559 623.5,307.5 Z"/></g>
<g><path style="opacity:1" fill="#efefef" d="M 212.5,309.5 C 214.527,309.338 216.527,309.505 218.5,310C 222.037,311.826 222.371,314.16 219.5,317C 217.19,317.497 214.857,317.663 212.5,317.5C 212.5,314.833 212.5,312.167 212.5,309.5 Z"/></g>
<g><path style="opacity:1" fill="#f5f5f5" d="M 324.5,309.5 C 333.649,309.156 337.149,313.49 335,322.5C 330,329.167 325,329.167 320,322.5C 318.379,316.923 319.879,312.589 324.5,309.5 Z"/></g>
<g><path style="opacity:1" fill="#eeeeee" d="M 345.5,309.5 C 352.468,307.971 355.135,310.471 353.5,317C 350.986,318.252 348.32,318.752 345.5,318.5C 345.5,315.5 345.5,312.5 345.5,309.5 Z"/></g>
<g><path style="opacity:1" fill="#f4f4f4" d="M 422.5,309.5 C 432.901,309.051 436.734,313.718 434,323.5C 430.96,326.966 427.126,328.3 422.5,327.5C 422.5,321.5 422.5,315.5 422.5,309.5 Z"/></g>
<g><path style="opacity:1" fill="#f5f5f5" d="M 498.5,309.5 C 507.649,309.156 511.149,313.49 509,322.5C 504,329.167 499,329.167 494,322.5C 492.379,316.923 493.879,312.589 498.5,309.5 Z"/></g>
<g><path style="opacity:1" fill="#f6f6f6" d="M 586.5,309.5 C 595.705,309.206 599.205,313.54 597,322.5C 591.67,329.311 586.67,328.977 582,321.5C 581.333,319.167 581.333,316.833 582,314.5C 583.366,312.638 584.866,310.972 586.5,309.5 Z"/></g>
<g><path style="opacity:1" fill="#e4e4e4" d="M 541.5,311.5 C 543.642,314.8 544.975,318.467 545.5,322.5C 543.167,322.5 540.833,322.5 538.5,322.5C 539.2,318.763 540.2,315.096 541.5,311.5 Z"/></g>
<g><path style="opacity:1" fill="#dedede" d="M 249.5,311.5 C 251.601,314.797 252.935,318.463 253.5,322.5C 250.753,322.813 248.086,322.48 245.5,321.5C 247.037,318.218 248.37,314.884 249.5,311.5 Z"/></g>
<g><path style="opacity:1" fill="#dedede" d="M 287.5,311.5 C 289.524,314.519 291.191,317.852 292.5,321.5C 289.914,322.48 287.247,322.813 284.5,322.5C 285.297,318.777 286.297,315.11 287.5,311.5 Z"/></g>
<g><path style="opacity:1" fill="#dedede" d="M 397.5,311.5 C 399.601,314.797 400.935,318.463 401.5,322.5C 398.753,322.813 396.086,322.48 393.5,321.5C 395.037,318.218 396.37,314.884 397.5,311.5 Z"/></g>
<g><path style="opacity:1" fill="#a1a1a1" d="M 366.5,316.5 C 365.833,320.833 365.167,325.167 364.5,329.5C 364.334,324.156 364.501,318.823 365,313.5C 365.513,314.527 366.013,315.527 366.5,316.5 Z"/></g>
<g><path style="opacity:1" fill="#989898" d="M 304.5,316.5 C 307.167,316.5 309.833,316.5 312.5,316.5C 312.737,317.791 312.404,318.791 311.5,319.5C 309.492,317.917 307.159,316.917 304.5,316.5 Z"/></g>
<g><path style="opacity:1" fill="#949494" d="M 445.5,309.5 C 445.5,311.833 445.5,314.167 445.5,316.5C 448.059,316.198 450.393,316.532 452.5,317.5C 449.833,317.5 447.167,317.5 444.5,317.5C 444.194,314.615 444.527,311.948 445.5,309.5 Z"/></g>
<g><path style="opacity:1" fill="#9b9b9b" d="M 230.5,326.5 C 233.167,326.5 235.833,326.5 238.5,326.5C 238.737,327.791 238.404,328.791 237.5,329.5C 235.492,327.917 233.159,326.917 230.5,326.5 Z"/></g>
<g><path style="opacity:1" fill="#9b9b9b" d="M 445.5,319.5 C 445.5,321.833 445.5,324.167 445.5,326.5C 448.385,326.194 451.052,326.527 453.5,327.5C 450.5,327.5 447.5,327.5 444.5,327.5C 444.194,324.615 444.527,321.948 445.5,319.5 Z"/></g>
</svg>
