<svg version="1.1" id="Layer_1" xmlns="http://www.w3.org/2000/svg" xmlns:xlink="http://www.w3.org/1999/xlink" x="0px" y="0px"
	 width="100%" viewBox="0 0 512 256" enable-background="new 0 0 512 256" xml:space="preserve">
<path fill="#FEFFFF" opacity="1.000000" stroke="none" 
	d="
M301.000000,257.000000 
	C200.666672,257.000000 100.833336,257.000000 1.000000,257.000000 
	C1.000000,171.666672 1.000000,86.333336 1.000000,1.000000 
	C171.666672,1.000000 342.333344,1.000000 513.000000,1.000000 
	C513.000000,86.333336 513.000000,171.666672 513.000000,257.000000 
	C442.500000,257.000000 372.000000,257.000000 301.000000,257.000000 
M463.995575,140.012314 
	C463.995575,140.012314 463.920166,140.039154 463.912720,139.363129 
	C463.302887,138.534271 462.693054,137.705414 461.907928,136.470078 
	C461.907928,136.470078 461.631348,136.124405 461.711121,135.510757 
	C461.148560,134.994202 460.585999,134.477661 459.794739,133.521530 
	C459.794739,133.521530 459.465912,133.150787 459.615753,132.390045 
	C460.203308,131.029083 460.790894,129.668121 462.033356,128.125061 
	C464.098877,125.515717 466.164398,122.906364 468.799042,119.951965 
	C468.894043,118.295448 468.989014,116.638931 469.184357,114.187820 
	C469.119202,113.124977 469.054077,112.062126 469.340973,110.649162 
	C468.987396,109.984840 468.633820,109.320526 468.139679,107.976540 
	C466.433868,105.646751 464.728058,103.316963 462.874786,100.388954 
	C462.202759,100.077995 461.530762,99.767044 460.374237,99.139145 
	C460.008240,99.021202 459.642242,98.903252 459.062531,98.320419 
	C458.370789,98.192375 457.679016,98.064339 456.495300,97.746986 
	C456.149902,97.687660 455.804504,97.628342 454.917053,97.012932 
	C448.248810,96.778465 441.580902,96.459587 434.911835,96.432274 
	C434.197998,96.429352 433.477203,98.126152 432.716400,99.966492 
	C432.768982,111.636482 432.821564,123.306480 432.410492,135.612518 
	C432.562927,138.750763 432.715332,141.888992 432.790131,145.813309 
	C432.786591,146.865860 432.783051,147.918427 432.395508,149.448425 
	C433.960510,152.578247 435.866760,152.895645 437.997864,150.014572 
	C437.997864,150.014572 438.146545,150.140167 438.846802,149.833206 
	C439.080048,145.331589 439.107788,140.805191 439.646210,136.340378 
	C439.865875,134.519226 441.192688,132.831589 442.883575,131.171310 
	C444.916870,131.146759 446.950134,131.122223 449.436249,131.503845 
	C450.012024,131.430267 450.587799,131.356674 451.706055,131.677246 
	C452.240417,132.080902 452.774780,132.484573 453.250854,133.505737 
	C453.807007,134.044357 454.363159,134.582977 455.082581,135.531525 
	C455.082581,135.531525 455.354492,135.878998 455.265961,136.493561 
	C455.815979,137.037582 456.365967,137.581604 457.078766,138.533951 
	C457.078766,138.533951 457.349976,138.879898 457.266998,139.491211 
	C457.821075,140.029785 458.375153,140.568359 459.089630,141.524658 
	C459.089630,141.524658 459.366455,141.876236 459.298157,142.492676 
	C459.861633,143.001907 460.425079,143.511154 461.247620,144.546890 
	C461.635590,144.985504 462.023590,145.424103 462.335632,146.470413 
	C462.888428,146.984131 463.441223,147.497864 464.314453,148.641251 
	C465.544800,149.223328 466.775116,149.805389 468.456726,150.742020 
	C469.036621,150.105988 470.227264,149.097137 470.101837,148.891647 
	C468.857666,146.853409 467.395782,144.948074 465.793671,142.549103 
	C465.793671,142.549103 465.473358,142.166870 465.612305,141.576248 
	C465.057037,141.076004 464.501770,140.575775 463.995575,140.012314 
M40.430653,133.066559 
	C41.658909,137.211029 43.130287,141.304138 44.020924,145.519928 
	C44.525734,147.909424 44.517475,150.601761 43.967396,152.978851 
	C42.849392,157.810196 40.708931,162.437515 39.901939,167.300278 
	C38.799770,173.941757 42.548664,178.185867 49.171722,177.616608 
	C53.867439,177.213028 58.529152,175.641052 63.039074,174.101501 
	C66.439484,172.940720 69.382545,172.039001 73.054878,173.669922 
	C92.521729,182.315430 115.911095,177.707474 131.261185,162.486557 
	C147.207138,146.674789 152.078400,123.536751 143.347443,103.616188 
	C141.773697,100.025505 142.048309,97.247726 143.526993,93.738564 
	C145.368210,89.369072 146.807083,84.612946 147.232010,79.916313 
	C147.820297,73.414581 143.998779,69.586792 137.538300,70.282761 
	C132.696152,70.804375 127.889328,72.529610 123.314339,74.343414 
	C120.334862,75.524666 117.977859,75.924995 114.859192,74.590408 
	C102.134674,69.145119 89.079231,68.330521 75.894691,72.988091 
	C52.546722,81.236008 36.244698,105.163391 40.430653,133.066559 
M263.036621,142.822800 
	C252.392227,135.975967 249.320450,123.606941 255.592407,112.847473 
	C261.666077,102.428162 273.835327,98.968575 284.516754,104.876175 
	C286.914124,106.202087 289.042755,107.218307 289.925446,104.029724 
	C290.249969,102.857468 288.498840,100.356064 287.080597,99.573547 
	C274.024353,92.369789 257.861481,96.610229 250.351944,108.983566 
	C242.468918,121.972275 245.808884,138.653702 258.212738,147.051376 
	C266.763245,152.840240 276.126648,153.522293 285.313629,149.107056 
	C293.795593,145.030640 297.946167,137.634415 298.421478,128.194946 
	C298.541260,125.816483 298.527527,123.723564 295.372345,123.690628 
	C290.042786,123.635010 284.707184,123.478271 279.388153,123.700279 
	C278.406250,123.741264 276.703186,125.409218 276.743073,126.260078 
	C276.793488,127.333733 278.147675,129.013596 279.193237,129.235382 
	C281.427887,129.709412 283.827820,129.484573 286.156525,129.419342 
	C292.697510,129.236145 293.463654,130.330688 290.666962,136.218338 
	C290.104645,137.402084 289.345367,138.538788 288.480316,139.524719 
	C282.657990,146.160721 273.415466,147.511475 263.036621,142.822800 
M409.124573,113.199883 
	C407.211182,108.955284 405.509216,104.594963 403.280670,100.522827 
	C402.384491,98.885292 400.440735,97.086899 398.770203,96.859894 
	C397.615326,96.702957 395.575226,98.863411 394.851044,100.417252 
	C390.285553,110.213058 385.961487,120.121765 381.590088,130.007507 
	C378.591919,136.787796 375.646179,143.591278 372.730072,150.262924 
	C373.311401,150.764572 373.524933,151.091675 373.808411,151.172073 
	C378.330109,152.454468 379.995636,149.723785 381.357910,146.078491 
	C384.215942,138.430908 384.310883,138.473846 392.325226,138.512222 
	C396.151245,138.530533 400.039703,138.953629 403.790405,138.421448 
	C411.371674,137.345779 416.312958,139.668045 417.840820,147.603546 
	C417.990936,148.383148 418.395935,149.528595 418.963257,149.735794 
	C420.719421,150.377182 422.611237,150.647156 424.450409,151.061310 
	C424.378357,149.580139 424.725800,147.914581 424.168457,146.646729 
	C419.350861,135.687180 414.370392,124.799225 409.124573,113.199883 
M364.330811,100.103073 
	C349.467255,92.471870 333.871368,96.254341 325.874207,109.430000 
	C318.079834,122.271538 321.519745,138.293869 334.097992,146.883789 
	C343.917694,153.589828 354.135895,153.096390 364.340393,147.781937 
	C365.414551,147.222504 366.673218,145.442886 366.496490,144.476059 
	C366.299408,143.397690 364.660583,142.070572 363.461395,141.843338 
	C362.428223,141.647568 361.127136,142.837051 359.951324,143.427673 
	C352.017059,147.413177 341.817566,145.995560 335.241180,139.989395 
	C328.748871,134.060028 326.527649,124.530853 329.694519,116.193817 
	C334.508026,103.521820 348.131409,98.578056 360.597992,104.811165 
	C361.896851,105.460571 363.762146,104.977104 365.364655,105.019264 
	C365.225037,103.495354 365.085419,101.971451 364.330811,100.103073 
M220.871964,105.548492 
	C222.024551,102.900414 223.177155,100.252327 224.616669,96.945023 
	C220.609360,96.395714 218.079880,96.145737 216.612686,99.649719 
	C212.886612,108.548492 209.036346,117.395470 205.206314,126.250420 
	C203.017563,131.310776 200.771103,136.346161 197.954117,142.748535 
	C196.485275,139.677933 195.679581,138.119644 194.981628,136.514526 
	C189.741516,124.463264 184.485565,112.418633 179.318695,100.335945 
	C177.665253,96.469322 175.215302,95.553604 171.513596,97.461388 
	C171.558807,98.193993 171.453781,98.735092 171.637619,99.147339 
	C178.955215,115.554382 186.245148,131.974472 193.740280,148.300323 
	C194.348618,149.625427 196.411621,151.094803 197.750092,151.049850 
	C199.158325,151.002563 201.154724,149.512451 201.783585,148.142868 
	C208.169296,134.235825 214.327744,120.224434 220.871964,105.548492 
M237.522354,108.534019 
	C237.550507,105.872574 237.937698,103.145683 237.469147,100.574776 
	C237.197861,99.086273 235.754929,96.976189 234.478027,96.674400 
	C231.531433,95.977997 231.141281,98.238136 231.152435,100.724686 
	C231.221054,116.029106 231.193512,131.333984 231.181885,146.638702 
	C231.180069,149.024200 230.878464,151.520477 234.483505,151.447891 
	C238.141541,151.374268 237.590271,148.745361 237.587219,146.453384 
	C237.570801,134.143066 237.541626,121.832741 237.522354,108.534019 
M313.332886,114.503967 
	C313.340424,110.185852 313.328278,105.867569 313.363251,101.549675 
	C313.382629,99.158974 313.632324,96.616539 310.146057,96.581551 
	C306.413788,96.544098 307.139221,99.362762 307.135132,101.582573 
	C307.107452,116.530014 307.115997,131.477524 307.117126,146.425003 
	C307.117310,148.713196 306.536774,151.463211 310.180756,151.409698 
	C313.623505,151.359100 313.391205,148.781097 313.384308,146.393921 
	C313.354645,136.096909 313.347382,125.799828 313.332886,114.503967 
z"/>
<path fill="#3CBDBE" opacity="1.000000" stroke="none" 
	d="
M40.364296,132.638412 
	C36.244698,105.163391 52.546722,81.236008 75.894691,72.988091 
	C89.079231,68.330521 102.134674,69.145119 114.859192,74.590408 
	C117.977859,75.924995 120.334862,75.524666 123.314339,74.343414 
	C127.889328,72.529610 132.696152,70.804375 137.538300,70.282761 
	C143.998779,69.586792 147.820297,73.414581 147.232010,79.916313 
	C146.807083,84.612946 145.368210,89.369072 143.526993,93.738564 
	C142.048309,97.247726 141.773697,100.025505 143.347443,103.616188 
	C152.078400,123.536751 147.207138,146.674789 131.261185,162.486557 
	C115.911095,177.707474 92.521729,182.315430 73.054878,173.669922 
	C69.382545,172.039001 66.439484,172.940720 63.039074,174.101501 
	C58.529152,175.641052 53.867439,177.213028 49.171722,177.616608 
	C42.548664,178.185867 38.799770,173.941757 39.901939,167.300278 
	C40.708931,162.437515 42.849392,157.810196 43.967396,152.978851 
	C44.517475,150.601761 44.525734,147.909424 44.020924,145.519928 
	C43.130287,141.304138 41.658909,137.211029 40.364296,132.638412 
M91.008858,75.237427 
	C88.211220,75.600395 85.337059,75.669212 82.628342,76.373947 
	C64.662018,81.048317 52.171860,92.125145 46.735207,109.834213 
	C41.188950,127.900299 44.956314,144.361954 58.297516,158.234161 
	C59.948418,159.950760 61.513367,161.750000 63.118145,163.510956 
	C62.728367,163.994781 62.338589,164.478607 61.948811,164.962433 
	C55.086407,165.702820 53.717831,157.751617 48.336269,155.040497 
	C47.408165,157.104492 45.994850,159.082382 45.675007,161.223587 
	C45.155457,164.701691 45.351952,168.286743 45.246201,171.826660 
	C49.080376,171.779297 53.248386,172.703201 56.692020,171.519592 
	C73.253906,165.827087 86.431076,154.750214 99.246178,143.292343 
	C100.331787,142.321716 100.270264,140.068085 100.992676,137.527863 
	C98.938957,138.149033 98.479523,138.341995 98.001160,138.422485 
	C96.602783,138.657867 95.196854,138.848373 93.793877,139.056473 
	C94.301285,137.784027 94.531456,136.276062 95.372025,135.286667 
	C97.307205,133.008835 99.624130,131.059937 101.631943,128.838196 
	C105.166786,124.926743 109.250801,123.221695 114.600113,124.501747 
	C115.829338,124.795891 117.911697,123.966354 118.779587,122.951263 
	C127.462173,112.796013 135.424286,102.108292 140.317230,89.537605 
	C142.012207,85.182938 145.397537,79.697060 141.195038,76.047440 
	C136.892960,72.311325 131.393448,75.823265 126.627159,77.665520 
	C125.929489,77.935181 125.409592,78.664742 124.393867,79.536423 
	C126.882446,81.839607 129.225006,83.859825 131.390503,86.054733 
	C133.423767,88.115616 136.730484,90.027054 133.142929,93.811600 
	C129.151947,90.240120 125.666557,86.360153 121.459862,83.566261 
	C117.075928,80.654648 112.192558,78.106163 107.164680,76.664360 
	C102.312027,75.272804 96.996529,75.495331 91.008858,75.237427 
M108.013405,150.121307 
	C106.226540,143.947403 105.229202,143.692993 100.437416,148.056076 
	C97.853836,150.408524 95.293602,152.806808 92.537086,154.944946 
	C86.670082,159.495789 80.681786,163.890274 74.686401,168.391479 
	C84.633408,176.349091 112.234932,175.607681 128.777237,157.853699 
	C142.905060,142.691010 148.024445,115.027206 138.033554,105.295937 
	C132.558578,112.363762 127.014381,119.382004 121.684395,126.559326 
	C120.930710,127.574219 120.852112,129.428482 121.088127,130.785141 
	C122.561584,139.254974 116.943672,148.245697 108.013405,150.121307 
M110.616554,128.178940 
	C106.792496,128.996201 103.613297,131.253082 104.360268,135.160263 
	C104.797256,137.446014 107.757866,140.075577 110.165543,140.953629 
	C113.327499,142.106766 116.383888,140.516998 117.482338,136.779129 
	C118.604050,132.962097 116.470451,129.977615 110.616554,128.178940 
z"/>
<path fill="#34BCBD" opacity="1.000000" stroke="none" 
	d="
M263.376465,143.016525 
	C273.415466,147.511475 282.657990,146.160721 288.480316,139.524719 
	C289.345367,138.538788 290.104645,137.402084 290.666962,136.218338 
	C293.463654,130.330688 292.697510,129.236145 286.156525,129.419342 
	C283.827820,129.484573 281.427887,129.709412 279.193237,129.235382 
	C278.147675,129.013596 276.793488,127.333733 276.743073,126.260078 
	C276.703186,125.409218 278.406250,123.741264 279.388153,123.700279 
	C284.707184,123.478271 290.042786,123.635010 295.372345,123.690628 
	C298.527527,123.723564 298.541260,125.816483 298.421478,128.194946 
	C297.946167,137.634415 293.795593,145.030640 285.313629,149.107056 
	C276.126648,153.522293 266.763245,152.840240 258.212738,147.051376 
	C245.808884,138.653702 242.468918,121.972275 250.351944,108.983566 
	C257.861481,96.610229 274.024353,92.369789 287.080597,99.573547 
	C288.498840,100.356064 290.249969,102.857468 289.925446,104.029724 
	C289.042755,107.218307 286.914124,106.202087 284.516754,104.876175 
	C273.835327,98.968575 261.666077,102.428162 255.592407,112.847473 
	C249.320450,123.606941 252.392227,135.975967 263.376465,143.016525 
z"/>
<path fill="#34BCBD" opacity="1.000000" stroke="none" 
	d="
M409.281494,113.544907 
	C414.370392,124.799225 419.350861,135.687180 424.168457,146.646729 
	C424.725800,147.914581 424.378357,149.580139 424.450378,151.061310 
	C422.611237,150.647156 420.719421,150.377182 418.963257,149.735794 
	C418.395935,149.528595 417.990936,148.383148 417.840820,147.603546 
	C416.312958,139.668045 411.371674,137.345779 403.790405,138.421448 
	C400.039703,138.953629 396.151245,138.530533 392.325226,138.512222 
	C384.310883,138.473846 384.215942,138.430908 381.357910,146.078491 
	C379.995636,149.723785 378.330109,152.454468 373.808411,151.172073 
	C373.524933,151.091675 373.311401,150.764572 372.730072,150.262924 
	C375.646179,143.591278 378.591919,136.787796 381.590088,130.007507 
	C385.961487,120.121765 390.285553,110.213058 394.851044,100.417252 
	C395.575226,98.863411 397.615326,96.702957 398.770203,96.859894 
	C400.440735,97.086899 402.384491,98.885292 403.280670,100.522827 
	C405.509216,104.594963 407.211182,108.955284 409.281494,113.544907 
M396.350128,110.879105 
	C393.334900,117.943184 390.319672,125.007263 387.055878,132.653717 
	C395.672729,132.653717 403.197601,132.653717 411.505737,132.653717 
	C407.398956,123.158058 403.659912,114.512589 399.357056,104.563507 
	C398.019836,107.338707 397.333710,108.762741 396.350128,110.879105 
z"/>
<path fill="#34BCBD" opacity="1.000000" stroke="none" 
	d="
M364.638306,100.275314 
	C365.085419,101.971451 365.225037,103.495354 365.364624,105.019264 
	C363.762146,104.977104 361.896851,105.460571 360.597992,104.811165 
	C348.131409,98.578056 334.508026,103.521820 329.694519,116.193817 
	C326.527649,124.530853 328.748871,134.060028 335.241180,139.989395 
	C341.817566,145.995560 352.017059,147.413177 359.951324,143.427673 
	C361.127136,142.837051 362.428223,141.647568 363.461395,141.843338 
	C364.660583,142.070572 366.299408,143.397690 366.496490,144.476059 
	C366.673218,145.442886 365.414551,147.222504 364.340393,147.781937 
	C354.135895,153.096390 343.917694,153.589828 334.097992,146.883789 
	C321.519745,138.293869 318.079834,122.271538 325.874207,109.430000 
	C333.871368,96.254341 349.467255,92.471870 364.638306,100.275314 
z"/>
<path fill="#34BCBD" opacity="1.000000" stroke="none" 
	d="
M220.710922,105.895386 
	C214.327744,120.224434 208.169296,134.235825 201.783585,148.142868 
	C201.154724,149.512451 199.158325,151.002563 197.750092,151.049850 
	C196.411621,151.094803 194.348618,149.625427 193.740280,148.300323 
	C186.245148,131.974472 178.955215,115.554382 171.637619,99.147339 
	C171.453781,98.735092 171.558807,98.193993 171.513596,97.461388 
	C175.215302,95.553604 177.665253,96.469322 179.318695,100.335945 
	C184.485565,112.418633 189.741516,124.463264 194.981628,136.514526 
	C195.679581,138.119644 196.485275,139.677933 197.954117,142.748535 
	C200.771103,136.346161 203.017563,131.310776 205.206314,126.250420 
	C209.036346,117.395470 212.886612,108.548492 216.612686,99.649719 
	C218.079880,96.145737 220.609360,96.395714 224.616669,96.945023 
	C223.177155,100.252327 222.024551,102.900414 220.710922,105.895386 
z"/>
<path fill="#31BBBD" opacity="1.000000" stroke="none" 
	d="
M468.988953,110.999283 
	C469.054077,112.062126 469.119202,113.124977 468.838654,114.845947 
	C468.405273,117.101723 468.317596,118.699371 468.229919,120.297012 
	C466.164398,122.906364 464.098877,125.515717 461.326660,128.147552 
	C457.446167,129.184021 456.760193,130.774460 459.465912,133.150787 
	C459.465912,133.150787 459.794739,133.521530 459.913696,134.043991 
	C460.565582,135.085770 461.098480,135.605072 461.631348,136.124390 
	C461.631348,136.124405 461.907928,136.470078 461.980774,137.003418 
	C462.675781,138.370911 463.297974,139.205032 463.920166,140.039154 
	C463.920166,140.039154 463.995575,140.012314 463.977753,140.340088 
	C464.464386,141.167542 464.968872,141.667206 465.473358,142.166870 
	C465.473358,142.166870 465.793671,142.549103 465.915344,143.153503 
	C466.693176,145.967743 467.349335,148.177597 468.005463,150.387451 
	C466.775116,149.805389 465.544800,149.223328 464.153870,148.025513 
	C463.466064,146.894104 462.938812,146.378418 462.411560,145.862732 
	C462.023590,145.424103 461.635590,144.985504 461.112488,143.982574 
	C460.440430,142.904251 459.903442,142.390244 459.366455,141.876236 
	C459.366455,141.876236 459.089630,141.524658 459.021912,141.005432 
	C458.419464,139.950775 457.884705,139.415344 457.349976,138.879898 
	C457.349976,138.879898 457.078766,138.533951 457.013367,138.018372 
	C456.416840,136.961533 455.885651,136.420273 455.354492,135.878998 
	C455.354492,135.878998 455.082581,135.531525 455.015198,135.011734 
	C454.401642,133.957367 453.855408,133.422791 453.309174,132.888245 
	C452.774780,132.484573 452.240417,132.080902 451.324615,131.259918 
	C450.289917,130.927628 449.636688,131.012650 448.983429,131.097687 
	C446.950134,131.122223 444.916870,131.146759 442.232239,130.863037 
	C438.571045,130.135315 437.953491,131.955978 437.980469,134.391129 
	C438.038666,139.640762 438.091522,144.890488 438.146545,150.140167 
	C438.146545,150.140167 437.997864,150.014572 437.672546,150.033585 
	C435.824646,149.692047 434.302063,149.331512 432.779480,148.970978 
	C432.783051,147.918427 432.786591,146.865860 433.132202,145.148590 
	C433.274231,141.314728 433.074219,138.145599 432.874176,134.976471 
	C432.821564,123.306480 432.768982,111.636482 433.142212,99.329834 
	C435.481812,98.434502 437.389740,98.019119 439.310547,97.947044 
	C444.690552,97.745148 450.075867,97.685051 455.459106,97.569016 
	C455.804504,97.628342 456.149902,97.687660 456.930511,98.117538 
	C458.002563,98.587166 458.639404,98.686234 459.276245,98.785301 
	C459.642242,98.903252 460.008240,99.021202 460.710022,99.572464 
	C461.704651,100.332901 462.363434,100.660034 463.022217,100.987167 
	C464.728058,103.316963 466.433868,105.646751 468.133850,108.646301 
	C468.415009,109.877136 468.701996,110.438210 468.988953,110.999283 
M455.601562,103.232483 
	C453.954742,103.042282 452.311768,102.735382 450.660461,102.680573 
	C438.788269,102.286491 438.787720,102.302727 438.791595,114.281136 
	C438.795837,127.357780 439.675262,128.075348 452.939545,125.825134 
	C458.603394,124.864288 462.402405,121.581947 463.144989,117.007652 
	C464.205902,110.472374 462.303711,106.685020 455.601562,103.232483 
z"/>
<path fill="#3ABEBF" opacity="1.000000" stroke="none" 
	d="
M237.519608,109.028214 
	C237.541626,121.832741 237.570801,134.143066 237.587219,146.453384 
	C237.590271,148.745361 238.141541,151.374268 234.483505,151.447891 
	C230.878464,151.520477 231.180069,149.024200 231.181885,146.638702 
	C231.193512,131.333984 231.221054,116.029106 231.152435,100.724686 
	C231.141281,98.238136 231.531433,95.977997 234.478027,96.674400 
	C235.754929,96.976189 237.197861,99.086273 237.469147,100.574776 
	C237.937698,103.145683 237.550507,105.872574 237.519608,109.028214 
z"/>
<path fill="#3CBFC0" opacity="1.000000" stroke="none" 
	d="
M313.332458,115.003372 
	C313.347382,125.799828 313.354645,136.096909 313.384308,146.393921 
	C313.391205,148.781097 313.623505,151.359100 310.180756,151.409698 
	C306.536774,151.463211 307.117310,148.713196 307.117126,146.425003 
	C307.115997,131.477524 307.107452,116.530014 307.135132,101.582573 
	C307.139221,99.362762 306.413788,96.544098 310.146057,96.581551 
	C313.632324,96.616539 313.382629,99.158974 313.363251,101.549675 
	C313.328278,105.867569 313.340424,110.185852 313.332458,115.003372 
z"/>
<path fill="#6ECCCC" opacity="1.000000" stroke="none" 
	d="
M455.188080,97.290970 
	C450.075867,97.685051 444.690552,97.745148 439.310547,97.947044 
	C437.389740,98.019119 435.481812,98.434502 433.163818,98.863823 
	C433.477203,98.126152 434.197998,96.429352 434.911835,96.432274 
	C441.580902,96.459587 448.248810,96.778465 455.188080,97.290970 
z"/>
<path fill="#6ECCCC" opacity="1.000000" stroke="none" 
	d="
M438.496674,149.986694 
	C438.091522,144.890488 438.038666,139.640762 437.980469,134.391129 
	C437.953491,131.955978 438.571045,130.135315 441.798340,130.818970 
	C441.192688,132.831589 439.865875,134.519226 439.646210,136.340378 
	C439.107788,140.805191 439.080048,145.331589 438.496674,149.986694 
z"/>
<path fill="#6ECCCC" opacity="1.000000" stroke="none" 
	d="
M432.642334,135.294495 
	C433.074219,138.145599 433.274231,141.314728 433.171021,144.755554 
	C432.715332,141.888992 432.562927,138.750763 432.642334,135.294495 
z"/>
<path fill="#6ECCCC" opacity="1.000000" stroke="none" 
	d="
M468.231079,150.564728 
	C467.349335,148.177597 466.693176,145.967743 466.016235,143.381516 
	C467.395782,144.948074 468.857666,146.853409 470.101837,148.891647 
	C470.227264,149.097137 469.036621,150.105988 468.231079,150.564728 
z"/>
<path fill="#6ECCCC" opacity="1.000000" stroke="none" 
	d="
M432.587494,149.209702 
	C434.302063,149.331512 435.824646,149.692047 437.746216,150.099335 
	C435.866760,152.895645 433.960510,152.578247 432.587494,149.209702 
z"/>
<path fill="#6ECCCC" opacity="1.000000" stroke="none" 
	d="
M459.540833,132.770416 
	C456.760193,130.774460 457.446167,129.184021 460.999237,128.238617 
	C460.790894,129.668121 460.203308,131.029083 459.540833,132.770416 
z"/>
<path fill="#6ECCCC" opacity="1.000000" stroke="none" 
	d="
M468.514465,120.124489 
	C468.317596,118.699371 468.405273,117.101723 468.788483,115.243248 
	C468.989014,116.638931 468.894043,118.295448 468.514465,120.124489 
z"/>
<path fill="#6ECCCC" opacity="1.000000" stroke="none" 
	d="
M463.916443,139.701141 
	C463.297974,139.205032 462.675781,138.370911 462.068420,137.206665 
	C462.693054,137.705414 463.302887,138.534271 463.916443,139.701141 
z"/>
<path fill="#6ECCCC" opacity="1.000000" stroke="none" 
	d="
M462.948517,100.688057 
	C462.363434,100.660034 461.704651,100.332901 460.952271,99.730934 
	C461.530762,99.767044 462.202759,100.077995 462.948517,100.688057 
z"/>
<path fill="#6ECCCC" opacity="1.000000" stroke="none" 
	d="
M469.164978,110.824219 
	C468.701996,110.438210 468.415009,109.877136 468.204163,108.986137 
	C468.633820,109.320526 468.987396,109.984840 469.164978,110.824219 
z"/>
<path fill="#6ECCCC" opacity="1.000000" stroke="none" 
	d="
M462.373596,146.166565 
	C462.938812,146.378418 463.466064,146.894104 463.993683,147.710693 
	C463.441223,147.497864 462.888428,146.984131 462.373596,146.166565 
z"/>
<path fill="#6ECCCC" opacity="1.000000" stroke="none" 
	d="
M459.332306,142.184448 
	C459.903442,142.390244 460.440430,142.904251 460.982971,143.719330 
	C460.425079,143.511154 459.861633,143.001907 459.332306,142.184448 
z"/>
<path fill="#6ECCCC" opacity="1.000000" stroke="none" 
	d="
M465.542847,141.871552 
	C464.968872,141.667206 464.464386,141.167542 463.953217,140.371704 
	C464.501770,140.575775 465.057037,141.076004 465.542847,141.871552 
z"/>
<path fill="#6ECCCC" opacity="1.000000" stroke="none" 
	d="
M457.308472,139.185547 
	C457.884705,139.415344 458.419464,139.950775 458.941711,140.796570 
	C458.375153,140.568359 457.821075,140.029785 457.308472,139.185547 
z"/>
<path fill="#6ECCCC" opacity="1.000000" stroke="none" 
	d="
M455.310242,136.186279 
	C455.885651,136.420273 456.416840,136.961533 456.932007,137.814209 
	C456.365967,137.581604 455.815979,137.037582 455.310242,136.186279 
z"/>
<path fill="#6ECCCC" opacity="1.000000" stroke="none" 
	d="
M461.671234,135.817566 
	C461.098480,135.605072 460.565582,135.085770 460.028076,134.263794 
	C460.585999,134.477661 461.148560,134.994202 461.671234,135.817566 
z"/>
<path fill="#6ECCCC" opacity="1.000000" stroke="none" 
	d="
M453.280029,133.196991 
	C453.855408,133.422791 454.401642,133.957367 454.933594,134.806778 
	C454.363159,134.582977 453.807007,134.044357 453.280029,133.196991 
z"/>
<path fill="#6ECCCC" opacity="1.000000" stroke="none" 
	d="
M449.209839,131.300766 
	C449.636688,131.012650 450.289917,130.927628 451.053375,131.062851 
	C450.587799,131.356674 450.012024,131.430267 449.209839,131.300766 
z"/>
<path fill="#6ECCCC" opacity="1.000000" stroke="none" 
	d="
M459.169373,98.552856 
	C458.639404,98.686234 458.002563,98.587166 457.176514,98.212204 
	C457.679016,98.064339 458.370789,98.192375 459.169373,98.552856 
z"/>
<path fill="#FAFDFD" opacity="1.000000" stroke="none" 
	d="
M91.446609,75.123108 
	C96.996529,75.495331 102.312027,75.272804 107.164680,76.664360 
	C112.192558,78.106163 117.075928,80.654648 121.459862,83.566261 
	C125.666557,86.360153 129.151947,90.240120 133.142929,93.811600 
	C136.730484,90.027054 133.423767,88.115616 131.390503,86.054733 
	C129.225006,83.859825 126.882446,81.839607 124.393867,79.536423 
	C125.409592,78.664742 125.929489,77.935181 126.627159,77.665520 
	C131.393448,75.823265 136.892960,72.311325 141.195038,76.047440 
	C145.397537,79.697060 142.012207,85.182938 140.317230,89.537605 
	C135.424286,102.108292 127.462173,112.796013 118.779587,122.951263 
	C117.911697,123.966354 115.829338,124.795891 114.600113,124.501747 
	C109.250801,123.221695 105.166786,124.926743 101.631943,128.838196 
	C99.624130,131.059937 97.307205,133.008835 95.372025,135.286667 
	C94.531456,136.276062 94.301285,137.784027 93.793884,139.056473 
	C95.196854,138.848373 96.602783,138.657867 98.001160,138.422485 
	C98.479523,138.341995 98.938957,138.149033 100.992676,137.527863 
	C100.270264,140.068085 100.331787,142.321716 99.246178,143.292343 
	C86.431076,154.750214 73.253906,165.827087 56.692020,171.519592 
	C53.248386,172.703201 49.080376,171.779297 45.246201,171.826660 
	C45.351952,168.286743 45.155457,164.701691 45.675007,161.223587 
	C45.994850,159.082382 47.408165,157.104492 48.336269,155.040497 
	C53.717831,157.751617 55.086407,165.702820 61.948811,164.962433 
	C62.338589,164.478607 62.728367,163.994781 63.118145,163.510956 
	C61.513367,161.750000 59.948418,159.950760 58.297516,158.234161 
	C44.956314,144.361954 41.188950,127.900299 46.735207,109.834213 
	C52.171860,92.125145 64.662018,81.048317 82.628342,76.373947 
	C85.337059,75.669212 88.211220,75.600395 91.446609,75.123108 
z"/>
<path fill="#F6FCFC" opacity="1.000000" stroke="none" 
	d="
M108.319344,150.290833 
	C116.943672,148.245697 122.561584,139.254974 121.088127,130.785141 
	C120.852112,129.428482 120.930710,127.574219 121.684395,126.559326 
	C127.014381,119.382004 132.558578,112.363762 138.033554,105.295937 
	C148.024445,115.027206 142.905060,142.691010 128.777237,157.853699 
	C112.234932,175.607681 84.633408,176.349091 74.686401,168.391479 
	C80.681786,163.890274 86.670082,159.495789 92.537086,154.944946 
	C95.293602,152.806808 97.853836,150.408524 100.437416,148.056076 
	C105.229202,143.692993 106.226540,143.947403 108.319344,150.290833 
z"/>
<path fill="#EAF8F8" opacity="1.000000" stroke="none" 
	d="
M110.996857,128.177094 
	C116.470451,129.977615 118.604050,132.962097 117.482338,136.779129 
	C116.383888,140.516998 113.327499,142.106766 110.165543,140.953629 
	C107.757866,140.075577 104.797256,137.446014 104.360268,135.160263 
	C103.613297,131.253082 106.792496,128.996201 110.996857,128.177094 
z"/>
<path fill="#F0FAFA" opacity="1.000000" stroke="none" 
	d="
M396.498840,110.532944 
	C397.333710,108.762741 398.019836,107.338707 399.357056,104.563507 
	C403.659912,114.512589 407.398956,123.158058 411.505737,132.653717 
	C403.197601,132.653717 395.672729,132.653717 387.055878,132.653717 
	C390.319672,125.007263 393.334900,117.943184 396.498840,110.532944 
z"/>
<path fill="#F6FCFC" opacity="1.000000" stroke="none" 
	d="
M455.992004,103.387848 
	C462.303711,106.685020 464.205902,110.472374 463.144989,117.007652 
	C462.402405,121.581947 458.603394,124.864288 452.939545,125.825134 
	C439.675262,128.075348 438.795837,127.357780 438.791595,114.281136 
	C438.787720,102.302727 438.788269,102.286491 450.660461,102.680573 
	C452.311768,102.735382 453.954742,103.042282 455.992004,103.387848 
z"/>
</svg>